<svg width="139" height="60" viewBox="0 0 139 60" fill="none" xmlns="http://www.w3.org/2000/svg">
<path d="M5.14 33.04C3.06 35.76 2.02 38.7 2.02 41.86C2.02 45.62 3.6 48.54 6.76 50.62C8.6 51.86 10.68 52.48 13 52.48C15.36 52.48 17.4 52.02 19.12 51.1C22.36 49.42 24.18 46.6 24.58 42.64C24.62 42.36 24.64 42.08 24.64 41.8C24.64 40.32 24.22 38.72 23.38 37C22.58 35.28 21.26 33.7 19.42 32.26L8.62 23.74C6.26 21.9 5.08 19.52 5.08 16.6C5.08 13.68 6.02 11.22 7.9 9.22C9.78 7.18 12.32 6.16 15.52 6.16C17.12 6.16 18.86 6.36 20.74 6.76H23.14L23.26 14.14H22.66C22.62 12.22 21.92 10.72 20.56 9.64C19.24 8.52 17.56 7.96 15.52 7.96C13.52 7.96 11.84 8.64 10.48 10C9.12 11.32 8.44 13.04 8.44 15.16C8.44 17.24 9.32 18.98 11.08 20.38L22.18 29.14C26.58 32.62 28.78 36.82 28.78 41.74C28.78 45.42 27.32 48.58 24.4 51.22C21.88 53.5 18.52 54.64 14.32 54.64C11.76 54.64 9.48 54.16 7.48 53.2C3.72 51.44 1.46 48.44 0.7 44.2C0.58 43.56 0.52 42.76 0.52 41.8C0.52 40.8 0.8 39.46 1.36 37.78C1.92 36.06 3 34.34 4.6 32.62L5.14 33.04ZM96.9297 58.72C97.1697 58.72 97.4097 58.72 97.6497 58.72V59.32C96.5297 59.48 95.2697 59.56 93.8697 59.56C92.5097 59.56 90.8097 59.26 88.7697 58.66C86.7697 58.06 84.9497 56.94 83.3097 55.3C79.9497 51.94 77.9097 47.58 77.1897 42.22L73.5297 15.52L61.0497 43.72C59.9297 46.16 59.2497 48.2 59.0097 49.84H58.4097L42.8697 16.06L40.2297 45.88C40.1497 46.56 40.3497 47.16 40.8297 47.68C41.3497 48.2 41.9097 48.46 42.5097 48.46H43.4697V49H31.8297V48.4H32.7897C33.8697 48.4 34.8097 48.08 35.6097 47.44C36.4497 46.76 36.9697 45.88 37.1697 44.8L40.9497 12.04C37.4297 5.12 33.2097 1.66 28.2897 1.66C27.8497 1.66 27.3897 1.68 26.9097 1.72V1.12C27.9897 0.839997 28.8697 0.699996 29.5497 0.699996C30.2297 0.699996 30.9697 0.739997 31.7697 0.819998C32.5697 0.859998 33.5097 1.04 34.5897 1.36C35.6697 1.68 36.6897 2.16 37.6497 2.8C38.6097 3.4 39.4497 4.04 40.1697 4.72C40.8897 5.36 41.5697 6.08 42.2097 6.88C43.2897 8.32 44.1497 9.7 44.7897 11.02L59.2497 42.34L75.3897 6.16H75.9297L81.5097 41.68C82.3497 47.28 84.1497 51.52 86.9097 54.4C89.7097 57.28 93.0497 58.72 96.9297 58.72ZM102.511 20.98C102.351 20.46 102.271 20.02 102.271 19.66C102.271 19.26 102.291 18.82 102.331 18.34C102.371 17.86 102.451 17.2 102.571 16.36C102.731 15.52 103.011 14.7 103.411 13.9C103.811 13.06 104.271 12.26 104.791 11.5C105.311 10.74 105.971 10.04 106.771 9.4C107.611 8.76 108.531 8.2 109.531 7.72C111.651 6.68 114.231 6.16 117.271 6.16C123.391 6.16 128.371 8.2 132.211 12.28C136.091 16.32 138.031 21.5 138.031 27.82C138.031 34.14 135.751 39.4 131.191 43.6C126.631 47.76 120.851 49.84 113.851 49.84C106.851 49.84 101.031 47.76 96.3906 43.6C91.7906 39.44 89.4906 34.04 89.4906 27.4C89.4906 23.12 90.4906 19.32 92.4906 16C94.4906 12.68 97.3506 10.08 101.071 8.2L101.431 8.74C98.8306 10.46 96.9506 12.94 95.7906 16.18C94.6706 19.42 94.1106 22.86 94.1106 26.5C94.1106 33.26 95.9506 38.54 99.6306 42.34C103.311 46.14 108.031 48.04 113.791 48.04C119.551 48.04 124.251 46.14 127.891 42.34C131.571 38.5 133.411 33.46 133.411 27.22C133.411 21.82 131.951 17.26 129.031 13.54C126.151 9.82 122.071 7.96 116.791 7.96C114.431 7.96 112.291 8.38 110.371 9.22C106.891 10.7 104.591 13.14 103.471 16.54C103.151 17.54 102.991 18.4 102.991 19.12C102.991 19.84 103.031 20.42 103.111 20.86L102.511 20.98Z" fill="#F25E5E"/>
</svg>
