<svg width="100" height="100" viewBox="0 0 100 100" fill="none" xmlns="http://www.w3.org/2000/svg">
<path fill-rule="evenodd" clip-rule="evenodd" d="M50 100C77.6142 100 100 77.6142 100 50C100 22.3858 77.6142 0 50 0C22.3858 0 0 22.3858 0 50C0 77.6142 22.3858 100 50 100ZM65.7738 65.832H66.2058V66.192C65.5338 66.288 64.7778 66.336 63.9378 66.336C63.1218 66.336 62.1018 66.156 60.8778 65.796C59.6778 65.436 58.5858 64.764 57.6018 63.78C55.5858 61.764 54.3618 59.148 53.9298 55.932L51.7338 39.912L44.2458 56.832C43.5738 58.296 43.1658 59.52 43.0218 60.504H42.6618L33.3378 40.236L31.7538 58.128C31.7058 58.536 31.8258 58.896 32.1138 59.208C32.4258 59.52 32.7618 59.676 33.1218 59.676H33.6978V60H26.7138V59.64H27.2898C27.9378 59.64 28.5018 59.448 28.9818 59.064C29.4858 58.656 29.7978 58.128 29.9178 57.48L32.1858 37.824C30.0738 33.672 27.5418 31.596 24.5898 31.596C24.3258 31.596 24.0498 31.608 23.7618 31.632V31.272C24.4098 31.104 24.9378 31.02 25.3458 31.02C25.7538 31.02 26.1978 31.044 26.6778 31.092C27.1578 31.116 27.7218 31.224 28.3698 31.416C29.0178 31.608 29.6298 31.896 30.2058 32.28C30.7818 32.64 31.2858 33.024 31.7178 33.432C32.1498 33.816 32.5578 34.248 32.9418 34.728C33.5898 35.592 34.1058 36.42 34.4898 37.212L43.1658 56.004L52.8498 34.296H53.1738L56.5218 55.608C57.0258 58.968 58.1058 61.512 59.7618 63.24C61.4418 64.968 63.4458 65.832 65.7738 65.832ZM10.7 50.424C9.45202 52.056 8.82802 53.82 8.82802 55.716C8.82802 57.972 9.77602 59.724 11.672 60.972C12.776 61.716 14.024 62.088 15.416 62.088C16.832 62.088 18.056 61.812 19.088 61.26C21.032 60.252 22.124 58.56 22.364 56.184C22.388 56.016 22.4 55.848 22.4 55.68C22.4 54.792 22.148 53.832 21.644 52.8C21.164 51.768 20.372 50.82 19.268 49.956L12.788 44.844C11.372 43.74 10.664 42.312 10.664 40.56C10.664 38.808 11.228 37.332 12.356 36.132C13.484 34.908 15.008 34.296 16.928 34.296C17.888 34.296 18.932 34.416 20.06 34.656H21.5L21.572 39.084H21.212C21.188 37.932 20.768 37.032 19.952 36.384C19.16 35.712 18.152 35.376 16.928 35.376C15.728 35.376 14.72 35.784 13.904 36.6C13.088 37.392 12.68 38.424 12.68 39.696C12.68 40.944 13.208 41.988 14.264 42.828L20.924 48.084C23.564 50.172 24.884 52.692 24.884 55.644C24.884 57.852 24.008 59.748 22.256 61.332C20.744 62.7 18.728 63.384 16.208 63.384C14.672 63.384 13.304 63.096 12.104 62.52C9.84802 61.464 8.49202 59.664 8.03602 57.12C7.96402 56.736 7.92802 56.256 7.92802 55.68C7.92802 55.08 8.09602 54.276 8.43202 53.268C8.76802 52.236 9.41602 51.204 10.376 50.172L10.7 50.424ZM68.9784 42.396C68.9784 42.612 69.0264 42.876 69.1224 43.188L69.4824 43.116C69.4344 42.852 69.4104 42.504 69.4104 42.072C69.4104 41.64 69.5064 41.124 69.6984 40.524C70.3704 38.484 71.7504 37.02 73.8384 36.132C74.9904 35.628 76.2744 35.376 77.6904 35.376C80.8584 35.376 83.3064 36.492 85.0344 38.724C86.7864 40.956 87.6624 43.692 87.6624 46.932C87.6624 50.676 86.5584 53.7 84.3504 56.004C82.1664 58.284 79.3464 59.424 75.8904 59.424C72.4344 59.424 69.6024 58.284 67.3944 56.004C65.1864 53.724 64.0824 50.556 64.0824 46.5C64.0824 44.316 64.4184 42.252 65.0904 40.308C65.7864 38.364 66.9144 36.876 68.4744 35.844L68.2584 35.52C66.0264 36.648 64.3104 38.208 63.1104 40.2C61.9104 42.192 61.3104 44.472 61.3104 47.04C61.3104 51.024 62.6904 54.264 65.4504 56.76C68.2344 59.256 71.7264 60.504 75.9264 60.504C80.1264 60.504 83.5944 59.256 86.3304 56.76C89.0664 54.24 90.4344 51.084 90.4344 47.292C90.4344 43.5 89.2704 40.392 86.9424 37.968C84.6384 35.52 81.6504 34.296 77.9784 34.296C76.1544 34.296 74.6064 34.608 73.3344 35.232C72.7344 35.52 72.1824 35.856 71.6784 36.24C71.1984 36.624 70.8024 37.044 70.4904 37.5C70.1784 37.956 69.9024 38.436 69.6624 38.94C69.4224 39.42 69.2544 39.912 69.1584 40.416C69.0864 40.92 69.0384 41.316 69.0144 41.604C68.9904 41.892 68.9784 42.156 68.9784 42.396Z" fill="white"/>
</svg>
